<svg data-v-fde0c5aa="" xmlns="http://www.w3.org/2000/svg" viewBox="0 0 300 300" class="iconLeft"><!----><defs data-v-fde0c5aa=""><!----></defs><rect data-v-fde0c5aa="" fill="#4C1045" x="0" y="0" width="300px" height="300px" class="logo-background-square"></rect><defs data-v-fde0c5aa=""><!----></defs><g data-v-fde0c5aa="" id="273a40eb-89e1-4dc3-8414-c8194db07840" fill="#CF9EC3" transform="matrix(3.615714135557014,0,0,3.615714135557014,98.95609404881264,93.3779189129982)"><path d="M6.06 17.12L6.06 17.12L6.06 17.12Q6.73 17.12 6.73 17.62L6.73 17.62L6.73 17.62Q6.73 17.77 6.69 17.91L6.69 17.91L6.61 18.12L6.61 18.12Q6.28 19.02 6.04 19.18L6.04 19.18L6.04 19.18Q5.75 19.38 5.28 19.38L5.28 19.38L4.71 19.35L4.66 19.35L3.51 19.30L1.11 19.32L1.11 19.32Q0.61 19.32 0.61 18.95L0.61 18.95L0.61 18.95Q0.61 18.62 2.06 16.87L2.06 16.87L2.06 16.87Q2.19 16.72 3.25 15.45L3.25 15.45L3.65 14.97L3.65 14.97Q3.80 14.79 4.14 14.39L4.14 14.39L4.14 14.39Q4.72 13.71 4.79 13.58L4.79 13.58L4.79 13.58Q4.61 13.55 4.33 13.55L4.33 13.55L3.04 13.56L2.83 13.56L2.60 13.57L2.18 13.55L2.18 13.54L2.18 13.54Q1.65 14.87 1.11 14.87L1.11 14.87L1.11 14.87Q0.87 14.87 0.71 14.75L0.71 14.75L0.71 14.75Q0.56 14.62 0.56 14.40L0.56 14.40L0.56 14.40Q0.56 13.82 0.88 13.30L0.88 13.30L0.88 13.30Q1.20 12.77 1.63 12.77L1.63 12.77L6.34 12.77L6.34 12.77Q6.61 12.85 6.61 13.13L6.61 13.13L6.61 13.13Q6.61 13.49 4.18 16.31L4.18 16.31L4.18 16.31Q4.09 16.41 3.51 17.09L3.51 17.09L3.21 17.45L3.21 17.45Q3.11 17.56 2.91 17.77L2.91 17.77L2.91 17.77Q2.50 18.21 2.35 18.44L2.35 18.44L2.35 18.44Q2.60 18.51 3.03 18.51L3.03 18.51L3.81 18.51L3.81 18.51Q4.59 18.51 5.15 18.46L5.15 18.46L5.15 18.46L5.15 18.46Q5.24 18.38 5.39 18.02L5.39 18.02L5.39 18.02Q5.54 17.67 5.71 17.39L5.71 17.39L5.71 17.39Q5.88 17.12 6.06 17.12ZM8.40 18.57L8.40 18.57L8.40 18.57Q7.46 17.64 7.46 16.11L7.46 16.11L7.46 16.11Q7.46 14.57 8.41 13.61L8.41 13.61L8.41 13.61Q9.37 12.65 10.84 12.65L10.84 12.65L10.84 12.65Q12.01 12.65 12.81 13.40L12.81 13.40L12.81 13.40Q13.62 14.16 13.62 15.30L13.62 15.30L13.62 15.30Q13.62 15.85 12.74 15.85L12.74 15.85L8.78 15.85L8.78 15.85Q8.80 16.96 9.50 17.72L9.50 17.72L9.50 17.72Q10.21 18.48 11.28 18.48L11.28 18.48L11.28 18.48Q11.99 18.48 12.66 18.06L12.66 18.06L12.66 18.06Q13.02 17.84 13.11 17.84L13.11 17.84L13.11 17.84Q13.21 17.84 13.34 17.94L13.34 17.94L13.34 17.94Q13.47 18.04 13.47 18.18L13.47 18.18L13.47 18.18Q13.47 18.56 12.98 18.88L12.98 18.88L12.98 18.88Q12.50 19.20 11.92 19.35L11.92 19.35L11.92 19.35Q11.34 19.50 10.90 19.50L10.90 19.50L10.90 19.50Q9.35 19.50 8.40 18.57ZM12.36 15.13L12.36 15.13L12.36 15.13Q12.35 14.35 11.95 13.86L11.95 13.86L11.95 13.86Q11.55 13.36 10.79 13.36L10.79 13.36L10.79 13.36Q10.03 13.36 9.46 13.91L9.46 13.91L9.46 13.91Q8.89 14.46 8.85 15.16L8.85 15.16L10.45 15.16L10.45 15.16Q11.52 15.16 12.36 15.13ZM20.52 16.17L20.52 16.17L20.52 16.17Q20.52 14.59 19.61 13.87L19.61 13.87L19.61 13.87Q19.13 13.50 18.46 13.50L18.46 13.50L18.46 13.50Q16.50 13.50 16.50 15.71L16.50 15.71L16.50 17.96L16.50 17.96Q17.06 18.68 18.41 18.68L18.41 18.68L18.41 18.68Q19.39 18.68 19.96 17.97L19.96 17.97L19.96 17.97Q20.52 17.26 20.52 16.17ZM16.11 22.12L16.11 22.12L15.52 22.13L15.52 22.13Q14.63 22.13 14.42 21.85L14.42 21.85L14.42 21.85Q14.32 21.73 14.32 21.56L14.32 21.56L14.32 21.56Q14.32 21.38 14.46 21.31L14.46 21.31L14.46 21.31Q14.59 21.25 14.76 21.24L14.76 21.24L14.76 21.24Q14.93 21.23 15.07 21.13L15.07 21.13L15.07 21.13Q15.20 21.03 15.20 20.82L15.20 20.82L15.20 14.65L15.20 14.65Q15.20 14.16 15.13 13.97L15.13 13.97L15.13 13.97Q15.06 13.78 14.81 13.69L14.81 13.69L14.81 13.69Q14.78 13.67 14.53 13.62L14.53 13.62L14.53 13.62Q14.02 13.49 14.02 13.28L14.02 13.28L14.02 13.28Q14.02 12.74 15.39 12.74L15.39 12.74L15.39 12.74Q15.98 12.74 16.21 12.88L16.21 12.88L16.21 12.88Q16.44 13.02 16.44 13.47L16.44 13.47L16.44 13.47Q16.44 13.60 16.43 13.67L16.43 13.67L16.43 13.67Q16.96 13.16 17.49 12.89L17.49 12.89L17.49 12.89Q18.03 12.63 18.85 12.63L18.85 12.63L18.85 12.63Q19.68 12.63 20.40 13.09L20.40 13.09L20.40 13.09Q21.12 13.56 21.49 14.32L21.49 14.32L21.49 14.32Q21.86 15.08 21.86 16.02L21.86 16.02L21.86 16.02Q21.86 17.50 20.89 18.46L20.89 18.46L20.89 18.46Q19.92 19.43 18.42 19.43L18.42 19.43L18.42 19.43Q17.58 19.43 16.50 18.87L16.50 18.87L16.50 20.82L16.50 20.82Q16.50 21.21 16.94 21.24L16.94 21.24L16.94 21.24Q17.38 21.26 17.38 21.59L17.38 21.59L17.38 21.59Q17.38 21.96 16.97 22.05L16.97 22.05L16.97 22.05Q16.67 22.12 16.11 22.12ZM29.34 19.32L29.34 19.32L28.75 19.33L28.75 19.33Q27.86 19.33 27.64 19.05L27.64 19.05L27.64 19.05Q27.55 18.93 27.55 18.75L27.55 18.75L27.55 18.75Q27.55 18.58 27.69 18.51L27.69 18.51L27.69 18.51Q27.82 18.44 27.99 18.44L27.99 18.44L27.99 18.44Q28.16 18.43 28.29 18.33L28.29 18.33L28.29 18.33Q28.43 18.23 28.43 18.01L28.43 18.01L28.44 16.02L28.44 16.02Q28.44 14.77 28.14 14.17L28.14 14.17L28.14 14.17Q27.81 13.50 26.77 13.50L26.77 13.50L26.77 13.50Q25.68 13.50 25.24 14.19L25.24 14.19L25.24 14.19Q24.84 14.83 24.84 16.06L24.84 16.06L24.84 18.01L24.84 18.01Q24.84 18.41 25.28 18.43L25.28 18.43L25.28 18.43Q25.72 18.46 25.72 18.79L25.72 18.79L25.72 18.79Q25.72 19.16 25.31 19.25L25.31 19.25L25.31 19.25Q25.01 19.32 24.45 19.32L24.45 19.32L23.86 19.33L23.86 19.33Q22.97 19.33 22.76 19.05L22.76 19.05L22.76 19.05Q22.66 18.93 22.66 18.75L22.66 18.75L22.66 18.75Q22.66 18.58 22.80 18.51L22.80 18.51L22.80 18.51Q22.93 18.44 23.10 18.44L23.10 18.44L23.10 18.44Q23.27 18.43 23.41 18.33L23.41 18.33L23.41 18.33Q23.54 18.23 23.54 18.01L23.54 18.01L23.54 10.57L23.54 10.57Q23.54 10.17 23.05 10.09L23.05 10.09L23.05 10.09Q22.71 10.04 22.64 9.97L22.64 9.97L22.64 9.97Q22.57 9.91 22.57 9.75L22.57 9.75L22.57 9.75Q22.57 9.60 22.71 9.48L22.71 9.48L22.71 9.48Q22.85 9.36 23.08 9.30L23.08 9.30L23.08 9.30Q23.50 9.19 24.00 9.19L24.00 9.19L24.00 9.19Q24.85 9.19 24.85 9.70L24.85 9.70L24.85 13.67L24.85 13.67Q25.78 12.62 27.20 12.62L27.20 12.62L27.20 12.62Q28.62 12.62 29.18 13.35L29.18 13.35L29.18 13.35Q29.74 14.08 29.74 15.55L29.74 15.55L29.73 18.01L29.73 18.01Q29.73 18.41 30.17 18.43L30.17 18.43L30.17 18.43Q30.61 18.46 30.61 18.79L30.61 18.79L30.61 18.79Q30.61 19.16 30.20 19.25L30.20 19.25L30.20 19.25Q29.89 19.32 29.34 19.32ZM35 17.92L35 17.92L35 17.92Q36.73 14.26 36.73 14.05L36.73 14.05L36.73 14.05Q36.73 13.85 36.58 13.77L36.58 13.77L36.58 13.77Q36.43 13.69 36.25 13.67L36.25 13.67L36.25 13.67Q35.77 13.62 35.77 13.39L35.77 13.39L35.77 13.39Q35.77 12.77 37.24 12.77L37.24 12.77L37.52 12.77L37.52 12.77Q38.17 12.77 38.46 12.98L38.46 12.98L38.46 12.98Q38.74 13.19 38.74 13.38L38.74 13.38L38.74 13.38Q38.74 13.56 38.53 13.60L38.53 13.60L38.53 13.60Q38.11 13.68 37.90 13.84L37.90 13.84L37.90 13.84Q37.69 14 37.50 14.43L37.50 14.43L37.50 14.43Q37.30 14.86 36.83 15.90L36.83 15.90L36.83 15.90Q36.37 16.94 36.05 17.60L36.05 17.60L34.58 20.62L34.58 20.62Q34.35 21.11 33.98 21.43L33.98 21.43L33.98 21.43Q33.62 21.76 33.12 21.76L33.12 21.76L33.12 21.76Q32.62 21.76 32.25 21.51L32.25 21.51L32.25 21.51Q31.88 21.26 31.88 20.87L31.88 20.87L31.88 20.87Q31.88 20.47 32.11 20.24L32.11 20.24L32.11 20.24Q32.35 20.02 32.70 20.02L32.70 20.02L32.70 20.02Q33.06 20.02 33.34 20.19L33.34 20.19L33.34 20.19Q33.63 20.37 33.64 20.63L33.64 20.63L33.64 20.63Q34.19 19.76 34.37 19.28L34.37 19.28L34.37 19.28Q34.08 18.48 33.06 16.50L33.06 16.50L33.06 16.50Q32.04 14.51 31.93 14.28L31.93 14.28L31.93 14.28Q31.82 14.05 31.74 13.97L31.74 13.97L31.74 13.97Q31.66 13.88 31.54 13.82L31.54 13.82L31.54 13.82Q31.42 13.75 31.34 13.73L31.34 13.73L31.34 13.73Q31.25 13.70 31.07 13.65L31.07 13.65L31.07 13.65Q30.88 13.60 30.77 13.57L30.77 13.57L30.77 13.57Q30.66 13.54 30.66 13.36L30.66 13.36L30.66 13.36Q30.66 12.77 32.27 12.77L32.27 12.77L32.27 12.77Q33.26 12.77 33.54 12.87L33.54 12.87L33.54 12.87Q34.08 13.06 34.08 13.38L34.08 13.38L34.08 13.38Q34.08 13.59 33.68 13.67L33.68 13.67L33.68 13.67Q33.27 13.75 33.27 13.97L33.27 13.97L33.27 13.97Q33.27 13.99 33.51 14.62L33.51 14.62L33.51 14.62Q34.30 16.65 35 17.92ZM41.04 19.32L41.04 19.32L40.45 19.33L40.45 19.33Q39.55 19.33 39.34 19.05L39.34 19.05L39.34 19.05Q39.25 18.93 39.25 18.75L39.25 18.75L39.25 18.75Q39.25 18.58 39.38 18.51L39.38 18.51L39.38 18.51Q39.52 18.44 39.69 18.44L39.69 18.44L39.69 18.44Q39.85 18.43 39.99 18.33L39.99 18.33L39.99 18.33Q40.13 18.23 40.13 18.01L40.13 18.01L40.13 14.64L40.13 14.64Q40.13 14.03 39.98 13.88L39.98 13.88L39.98 13.88Q39.83 13.74 39.73 13.70L39.73 13.70L39.73 13.70Q39.63 13.66 39.42 13.60L39.42 13.60L39.42 13.60Q39.21 13.54 39.08 13.47L39.08 13.47L39.08 13.47Q38.94 13.41 38.94 13.29L38.94 13.29L38.94 13.29Q38.94 12.74 40.41 12.74L40.41 12.74L40.41 12.74Q41.04 12.74 41.20 12.96L41.20 12.96L41.20 12.96Q41.37 13.17 41.37 13.95L41.37 13.95L41.37 13.95Q41.60 13.36 42.14 13.03L42.14 13.03L42.14 13.03Q42.68 12.69 43.24 12.69L43.24 12.69L43.24 12.69Q43.80 12.69 44.17 12.94L44.17 12.94L44.17 12.94Q44.54 13.18 44.54 13.55L44.54 13.55L44.54 13.55Q44.54 13.92 44.30 14.15L44.30 14.15L44.30 14.15Q44.06 14.37 43.71 14.37L43.71 14.37L43.71 14.37Q43.36 14.37 43.11 14.18L43.11 14.18L43.11 14.18Q42.86 14 42.79 13.71L42.79 13.71L42.79 13.71Q42.61 13.68 42.49 13.68L42.49 13.68L42.49 13.68Q41.43 13.68 41.43 16.13L41.43 16.13L41.43 18.01L41.43 18.01Q41.43 18.41 41.87 18.43L41.87 18.43L41.87 18.43Q42.31 18.46 42.31 18.79L42.31 18.79L42.31 18.79Q42.31 19.16 41.90 19.25L41.90 19.25L41.90 19.25Q41.58 19.32 41.04 19.32Z"></path></g><defs data-v-fde0c5aa=""><!----></defs><g data-v-fde0c5aa="" id="b3ae68c7-9478-47cb-8c8d-35abf4628f84" stroke="none" fill="#CF9EC3" transform="matrix(0.7161327458708224,0,0,0.7161327458708224,28.54187606606684,114.19336270645888)"><path d="M34.032 26.214a3.328 3.328 0 0 0 3.324 3.324 3.328 3.328 0 0 0 3.324-3.324 3.328 3.328 0 0 0-3.324-3.324 3.327 3.327 0 0 0-3.324 3.324zM66.375 26.214a3.328 3.328 0 0 0-3.324-3.324 3.328 3.328 0 0 0-3.324 3.324 3.328 3.328 0 0 0 3.324 3.324 3.328 3.328 0 0 0 3.324-3.324z"></path><path d="M50.213 1h-.01C31.336 1 16 15.257 16 34.124V97h.051C34.095 97 48 74.728 48 48.968V49h3v-.032c0 6.643-.614 13.087-2.432 19.155-1.763 5.882-4.137 11.169-7.362 15.714-3.25 4.582-6.969 8.637-11.207 11.162-2.972 1.771-5.995 3.021-9.184 4.001H50.213C69.079 99 83 82.666 83 63.8V34.124C83 15.257 69.079 1 50.213 1zm2.405 28c1.468 0 2.069.762 1.335 2.033l-2.417 4.047c-.734 1.272-1.935 1.202-2.67-.07l-2.417-3.943c-.734-1.27-.133-2.067 1.335-2.067h4.834zm14.662 8.333c-4.582 2.658-10.644 4.121-17.069 4.121s-12.487-1.464-17.069-4.122c-4.82-2.796-7.477-6.597-7.483-10.703l-.008-.415c0-6.454 5.251-11.311 11.704-11.311C43.81 14.902 49.061 21 49.061 27h-2.842c0-4-3.976-9.256-8.863-9.256-4.882 0-8.855 3.772-8.863 8.652l.008.315c0 3.057 2.155 5.941 6.067 8.211 4.156 2.411 9.711 3.714 15.643 3.714s11.487-1.34 15.643-3.751c3.907-2.266 6.061-5.201 6.067-8.253l-.008-.417c0-4.887-3.976-8.471-8.863-8.471s-8.863 5.254-8.863 9.254h-2.842c0-6 5.251-12.098 11.704-12.098 6.449 0 11.697 5.046 11.704 11.493l.008.316c.002 4.115-2.655 7.825-7.481 10.624zM43.522 26.214c0 3.4-2.766 6.166-6.166 6.166a6.173 6.173 0 0 1-6.166-6.166c0-3.4 2.766-6.166 6.166-6.166a6.172 6.172 0 0 1 6.166 6.166zm13.363 0c0-3.4 2.766-6.166 6.166-6.166 3.4 0 6.166 2.766 6.166 6.166 0 3.4-2.766 6.166-6.166 6.166a6.173 6.173 0 0 1-6.166-6.166z"></path></g><!----></svg>